<svg width="64" height="16" viewBox="0 0 64 16" fill="none" xmlns="http://www.w3.org/2000/svg">
<path d="M1.352 12C1.05333 12 0.786667 11.9093 0.552 11.728C0.317333 11.536 0.2 11.3013 0.2 11.024V1.776C0.2 1.49867 0.290667 1.26933 0.472 1.088C0.664 0.895999 0.898667 0.799999 1.176 0.799999H5.784C6.33867 0.799999 6.856 0.949333 7.336 1.248C7.82667 1.536 8.22133 1.94133 8.52 2.464C8.81867 2.976 8.968 3.568 8.968 4.24C8.968 4.64533 8.88267 5.04 8.712 5.424C8.552 5.808 8.328 6.15467 8.04 6.464C7.76267 6.77333 7.448 7.01333 7.096 7.184L7.112 6.816C7.41067 6.976 7.656 7.168 7.848 7.392C8.05067 7.60533 8.20533 7.84 8.312 8.096C8.42933 8.34133 8.49867 8.608 8.52 8.896C8.56267 9.16267 8.58933 9.39733 8.6 9.6C8.62133 9.80267 8.65333 9.97333 8.696 10.112C8.74933 10.2507 8.84533 10.3573 8.984 10.432C9.21867 10.5707 9.36267 10.7733 9.416 11.04C9.48 11.296 9.42133 11.5253 9.24 11.728C9.12267 11.8667 8.97333 11.9573 8.792 12C8.61067 12.032 8.42933 12.032 8.248 12C8.06667 11.9573 7.91733 11.904 7.8 11.84C7.61867 11.7333 7.43733 11.5787 7.256 11.376C7.07467 11.1627 6.92533 10.88 6.808 10.528C6.70133 10.176 6.648 9.72267 6.648 9.168C6.648 8.98667 6.616 8.82133 6.552 8.672C6.488 8.512 6.39733 8.37867 6.28 8.272C6.16267 8.15467 6.01333 8.06933 5.832 8.016C5.65067 7.952 5.43733 7.92 5.192 7.92H1.96L2.2 7.552V11.024C2.2 11.3013 2.12533 11.536 1.976 11.728C1.82667 11.9093 1.61867 12 1.352 12ZM1.976 6.272H5.704C5.896 6.272 6.08267 6.18667 6.264 6.016C6.44533 5.83467 6.59467 5.59467 6.712 5.296C6.82933 4.98667 6.888 4.65067 6.888 4.288C6.888 3.81867 6.76 3.42933 6.504 3.12C6.25867 2.8 5.992 2.64 5.704 2.64H2.008L2.2 2.128V6.656L1.976 6.272ZM14.9783 12.16C14.0716 12.16 13.2823 11.9733 12.6103 11.6C11.9489 11.216 11.4369 10.6987 11.0743 10.048C10.7223 9.39733 10.5463 8.66133 10.5463 7.84C10.5463 6.88 10.7383 6.064 11.1223 5.392C11.5169 4.70933 12.0289 4.18667 12.6583 3.824C13.2876 3.46133 13.9543 3.28 14.6583 3.28C15.2023 3.28 15.7143 3.392 16.1943 3.616C16.6849 3.84 17.1169 4.14933 17.4903 4.544C17.8636 4.928 18.1569 5.376 18.3703 5.888C18.5943 6.4 18.7063 6.944 18.7063 7.52C18.6956 7.776 18.5943 7.984 18.4023 8.144C18.2103 8.304 17.9863 8.384 17.7303 8.384H11.6183L11.1383 6.784H17.0103L16.6583 7.104V6.672C16.6369 6.36267 16.5249 6.08533 16.3223 5.84C16.1303 5.59467 15.8849 5.40267 15.5863 5.264C15.2983 5.11467 14.9889 5.04 14.6583 5.04C14.3383 5.04 14.0396 5.08267 13.7623 5.168C13.4849 5.25333 13.2449 5.39733 13.0423 5.6C12.8396 5.80267 12.6796 6.07467 12.5623 6.416C12.4449 6.75733 12.3863 7.18933 12.3863 7.712C12.3863 8.288 12.5036 8.77867 12.7383 9.184C12.9836 9.57867 13.2929 9.88267 13.6663 10.096C14.0503 10.2987 14.4556 10.4 14.8823 10.4C15.2769 10.4 15.5916 10.368 15.8263 10.304C16.0609 10.24 16.2476 10.1653 16.3863 10.08C16.5356 9.984 16.6689 9.904 16.7863 9.84C16.9783 9.744 17.1596 9.696 17.3303 9.696C17.5649 9.696 17.7569 9.776 17.9062 9.936C18.0663 10.096 18.1463 10.2827 18.1463 10.496C18.1463 10.784 17.9969 11.0453 17.6983 11.28C17.4209 11.5147 17.0316 11.7227 16.5303 11.904C16.0289 12.0747 15.5116 12.16 14.9783 12.16ZM23.8576 3.28C24.3056 3.28 24.7163 3.34933 25.0896 3.488C25.463 3.62667 25.783 3.80267 26.0496 4.016C26.327 4.22933 26.5403 4.448 26.6896 4.672C26.8496 4.88533 26.9296 5.06667 26.9296 5.216L26.5136 5.424V4.256C26.5136 3.97867 26.6043 3.74933 26.7856 3.568C26.967 3.376 27.1963 3.28 27.4736 3.28C27.751 3.28 27.9803 3.37067 28.1616 3.552C28.343 3.73333 28.4336 3.968 28.4336 4.256V11.376C28.4336 12.304 28.231 13.0453 27.8256 13.6C27.431 14.1653 26.9083 14.5707 26.2576 14.816C25.607 15.072 24.9083 15.2 24.1616 15.2C23.9483 15.2 23.671 15.1733 23.3296 15.12C22.9883 15.0667 22.663 15.0027 22.3536 14.928C22.0443 14.8533 21.8096 14.784 21.6496 14.72C21.3296 14.5813 21.1056 14.4053 20.9776 14.192C20.8603 13.9893 20.839 13.7707 20.9136 13.536C21.0096 13.2267 21.1643 13.0133 21.3776 12.896C21.591 12.7893 21.815 12.7787 22.0496 12.864C22.1563 12.896 22.3323 12.96 22.5776 13.056C22.823 13.152 23.0896 13.2373 23.3776 13.312C23.6763 13.3973 23.9376 13.44 24.1616 13.44C24.9616 13.44 25.5536 13.28 25.9376 12.96C26.3216 12.64 26.5136 12.1973 26.5136 11.632V10.24L26.7056 10.384C26.7056 10.5227 26.631 10.6933 26.4816 10.896C26.343 11.088 26.1456 11.28 25.8896 11.472C25.6443 11.664 25.351 11.8293 25.0096 11.968C24.6683 12.096 24.3056 12.16 23.9216 12.16C23.1643 12.16 22.4816 11.9733 21.8736 11.6C21.2656 11.216 20.7856 10.6933 20.4336 10.032C20.0816 9.36 19.9056 8.592 19.9056 7.728C19.9056 6.85333 20.0816 6.08533 20.4336 5.424C20.7856 4.752 21.2603 4.22933 21.8576 3.856C22.455 3.472 23.1216 3.28 23.8576 3.28ZM24.1616 5.04C23.6816 5.04 23.2603 5.15733 22.8976 5.392C22.535 5.62667 22.2523 5.94667 22.0496 6.352C21.847 6.75733 21.7456 7.216 21.7456 7.728C21.7456 8.22933 21.847 8.68267 22.0496 9.088C22.2523 9.49333 22.535 9.81333 22.8976 10.048C23.2603 10.2827 23.6816 10.4 24.1616 10.4C24.6523 10.4 25.079 10.2827 25.4416 10.048C25.8043 9.81333 26.087 9.49333 26.2896 9.088C26.4923 8.68267 26.5936 8.22933 26.5936 7.728C26.5936 7.216 26.4923 6.75733 26.2896 6.352C26.087 5.94667 25.8043 5.62667 25.4416 5.392C25.079 5.15733 24.6523 5.04 24.1616 5.04ZM32.3168 11.024C32.3168 11.3013 32.2261 11.536 32.0448 11.728C31.8634 11.9093 31.6341 12 31.3568 12C31.0794 12 30.8501 11.9093 30.6688 11.728C30.4874 11.536 30.3968 11.3013 30.3968 11.024V4.416C30.3968 4.13867 30.4874 3.90933 30.6688 3.728C30.8501 3.536 31.0794 3.44 31.3568 3.44C31.6341 3.44 31.8634 3.536 32.0448 3.728C32.2261 3.90933 32.3168 4.13867 32.3168 4.416V11.024ZM31.3408 2.4C30.9781 2.4 30.7221 2.34133 30.5728 2.224C30.4234 2.10667 30.3488 1.89867 30.3488 1.6V1.296C30.3488 0.986666 30.4288 0.778666 30.5888 0.672C30.7594 0.554666 31.0154 0.495999 31.3568 0.495999C31.7301 0.495999 31.9914 0.554666 32.1408 0.672C32.2901 0.789333 32.3648 0.997333 32.3648 1.296V1.6C32.3648 1.90933 32.2848 2.12267 32.1248 2.24C31.9648 2.34667 31.7034 2.4 31.3408 2.4ZM33.794 10.672C33.6873 10.5227 33.6393 10.3307 33.65 10.096C33.6607 9.86133 33.7993 9.65867 34.066 9.488C34.2367 9.38133 34.418 9.33867 34.61 9.36C34.802 9.37067 34.9887 9.46667 35.17 9.648C35.4793 9.95733 35.8047 10.1973 36.146 10.368C36.4873 10.5387 36.914 10.624 37.426 10.624C37.586 10.6133 37.762 10.592 37.954 10.56C38.146 10.5173 38.3113 10.432 38.45 10.304C38.5993 10.1653 38.674 9.95733 38.674 9.68C38.674 9.44533 38.594 9.25867 38.434 9.12C38.274 8.98133 38.0607 8.864 37.794 8.768C37.538 8.672 37.25 8.58133 36.93 8.496C36.5993 8.4 36.258 8.29333 35.906 8.176C35.5647 8.05867 35.25 7.90933 34.962 7.728C34.674 7.536 34.4393 7.28533 34.258 6.976C34.0767 6.66667 33.986 6.27733 33.986 5.808C33.986 5.27467 34.1353 4.82133 34.434 4.448C34.7327 4.07467 35.1167 3.78667 35.586 3.584C36.066 3.38133 36.5673 3.28 37.09 3.28C37.4207 3.28 37.7673 3.32267 38.13 3.408C38.4927 3.48267 38.8393 3.61067 39.17 3.792C39.5007 3.96267 39.778 4.192 40.002 4.48C40.1193 4.64 40.1887 4.832 40.21 5.056C40.2313 5.28 40.13 5.48267 39.906 5.664C39.746 5.792 39.5593 5.85067 39.346 5.84C39.1327 5.81867 38.9567 5.744 38.818 5.616C38.6367 5.38133 38.3913 5.19467 38.082 5.056C37.7833 4.91733 37.4367 4.848 37.042 4.848C36.882 4.848 36.706 4.86933 36.514 4.912C36.3327 4.944 36.1727 5.024 36.034 5.152C35.8953 5.26933 35.826 5.46133 35.826 5.728C35.826 5.97333 35.906 6.17067 36.066 6.32C36.226 6.45867 36.4393 6.576 36.706 6.672C36.9833 6.75733 37.2767 6.84267 37.586 6.928C37.906 7.01333 38.2313 7.11467 38.562 7.232C38.8927 7.34933 39.1967 7.504 39.474 7.696C39.7513 7.888 39.9753 8.13867 40.146 8.448C40.3167 8.74667 40.402 9.13067 40.402 9.6C40.402 10.144 40.242 10.608 39.922 10.992C39.602 11.376 39.202 11.6693 38.722 11.872C38.242 12.064 37.7513 12.16 37.25 12.16C36.6207 12.16 35.9913 12.0533 35.362 11.84C34.7327 11.616 34.21 11.2267 33.794 10.672ZM42.1048 3.6H45.8968C46.1528 3.6 46.3661 3.68533 46.5368 3.856C46.7074 4.02667 46.7928 4.24 46.7928 4.496C46.7928 4.74133 46.7074 4.94933 46.5368 5.12C46.3661 5.28 46.1528 5.36 45.8968 5.36H42.1048C41.8488 5.36 41.6354 5.27467 41.4648 5.104C41.2941 4.93333 41.2088 4.72 41.2088 4.464C41.2088 4.21867 41.2941 4.016 41.4648 3.856C41.6354 3.68533 41.8488 3.6 42.1048 3.6ZM43.8168 1.6C44.0941 1.6 44.3181 1.696 44.4888 1.888C44.6701 2.06933 44.7608 2.29867 44.7608 2.576V9.696C44.7608 9.84533 44.7874 9.968 44.8408 10.064C44.9048 10.16 44.9848 10.2293 45.0807 10.272C45.1874 10.3147 45.2994 10.336 45.4168 10.336C45.5448 10.336 45.6621 10.3147 45.7688 10.272C45.8754 10.2187 45.9981 10.192 46.1368 10.192C46.2861 10.192 46.4194 10.2613 46.5368 10.4C46.6648 10.5387 46.7288 10.7307 46.7288 10.976C46.7288 11.2747 46.5634 11.52 46.2328 11.712C45.9128 11.904 45.5661 12 45.1927 12C44.9688 12 44.7181 11.984 44.4408 11.952C44.1741 11.9093 43.9181 11.8187 43.6728 11.68C43.4381 11.5307 43.2407 11.3067 43.0807 11.008C42.9208 10.7093 42.8408 10.2987 42.8408 9.776V2.576C42.8408 2.29867 42.9314 2.06933 43.1128 1.888C43.3048 1.696 43.5394 1.6 43.8168 1.6ZM52.5095 12.16C51.6028 12.16 50.8135 11.9733 50.1415 11.6C49.4802 11.216 48.9682 10.6987 48.6055 10.048C48.2535 9.39733 48.0775 8.66133 48.0775 7.84C48.0775 6.88 48.2695 6.064 48.6535 5.392C49.0482 4.70933 49.5602 4.18667 50.1895 3.824C50.8188 3.46133 51.4855 3.28 52.1895 3.28C52.7335 3.28 53.2455 3.392 53.7255 3.616C54.2162 3.84 54.6482 4.14933 55.0215 4.544C55.3948 4.928 55.6882 5.376 55.9015 5.888C56.1255 6.4 56.2375 6.944 56.2375 7.52C56.2268 7.776 56.1255 7.984 55.9335 8.144C55.7415 8.304 55.5175 8.384 55.2615 8.384H49.1495L48.6695 6.784H54.5415L54.1895 7.104V6.672C54.1682 6.36267 54.0562 6.08533 53.8535 5.84C53.6615 5.59467 53.4162 5.40267 53.1175 5.264C52.8295 5.11467 52.5202 5.04 52.1895 5.04C51.8695 5.04 51.5708 5.08267 51.2935 5.168C51.0162 5.25333 50.7762 5.39733 50.5735 5.6C50.3708 5.80267 50.2108 6.07467 50.0935 6.416C49.9762 6.75733 49.9175 7.18933 49.9175 7.712C49.9175 8.288 50.0348 8.77867 50.2695 9.184C50.5148 9.57867 50.8242 9.88267 51.1975 10.096C51.5815 10.2987 51.9868 10.4 52.4135 10.4C52.8082 10.4 53.1228 10.368 53.3575 10.304C53.5922 10.24 53.7788 10.1653 53.9175 10.08C54.0668 9.984 54.2002 9.904 54.3175 9.84C54.5095 9.744 54.6908 9.696 54.8615 9.696C55.0962 9.696 55.2882 9.776 55.4375 9.936C55.5975 10.096 55.6775 10.2827 55.6775 10.496C55.6775 10.784 55.5282 11.0453 55.2295 11.28C54.9522 11.5147 54.5628 11.7227 54.0615 11.904C53.5602 12.0747 53.0428 12.16 52.5095 12.16ZM58.875 12C58.5977 12 58.3683 11.9093 58.187 11.728C58.0057 11.536 57.915 11.3013 57.915 11.024V4.416C57.915 4.13867 58.0057 3.90933 58.187 3.728C58.3683 3.536 58.5977 3.44 58.875 3.44C59.1523 3.44 59.3817 3.536 59.563 3.728C59.7443 3.90933 59.835 4.13867 59.835 4.416V5.92L59.723 4.848C59.8403 4.592 59.9897 4.368 60.171 4.176C60.363 3.97333 60.5763 3.808 60.811 3.68C61.0457 3.54133 61.2963 3.44 61.563 3.376C61.8297 3.312 62.0963 3.28 62.363 3.28C62.683 3.28 62.9497 3.37067 63.163 3.552C63.387 3.73333 63.499 3.94667 63.499 4.192C63.499 4.544 63.4083 4.8 63.227 4.96C63.0457 5.10933 62.8483 5.184 62.635 5.184C62.4323 5.184 62.2457 5.14667 62.075 5.072C61.915 4.99733 61.7283 4.96 61.515 4.96C61.323 4.96 61.1257 5.008 60.923 5.104C60.731 5.18933 60.5497 5.328 60.379 5.52C60.219 5.712 60.0857 5.952 59.979 6.24C59.883 6.51733 59.835 6.848 59.835 7.232V11.024C59.835 11.3013 59.7443 11.536 59.563 11.728C59.3817 11.9093 59.1523 12 58.875 12Z" fill="white"/>
</svg>
